<svg width="23" height="16" viewBox="0 0 23 16" fill="none" xmlns="http://www.w3.org/2000/svg">
<path d="M6.70849 2.80732L3.96079 1.60342L1.11156 8.10631L3.85926 9.31021L6.70849 2.80732Z" stroke="black" stroke-width="0.75" stroke-miterlimit="10" stroke-linecap="round" stroke-linejoin="round"/>
<path d="M18.8488 1.09214L16.1011 2.29604L18.9503 8.79893L21.698 7.59503L18.8488 1.09214Z" stroke="black" stroke-width="0.75" stroke-miterlimit="10" stroke-linecap="round" stroke-linejoin="round"/>
<path d="M6.9 9.7C6.9 9.9 6.9 10.2 6.7 10.3L6.4 10.6L6.30001 10.7L6.10001 11C5.80001 11.4 5.3 11.4 5 11.1L4.80001 10.9C4.50001 10.6 4.4 10 4.7 9.7L4.80001 9.5L5 9.2L5.2 8.9C5.4 8.6 5.7 8.6 6 8.6C6.1 8.6 6.20001 8.7 6.30001 8.8L6.5 9C6.8 9.2 6.9 9.5 6.9 9.7Z" stroke="black" stroke-width="0.75" stroke-miterlimit="10" stroke-linecap="round" stroke-linejoin="round"/>
<path d="M18 11.2C17.8 11.4 17.5 11.5 17.2 11.5C17 11.5 16.7 11.4 16.5 11.2C16.9 11.6 16.9 12.2 16.6 12.6C16.4 12.8 16.1 12.9 15.8 12.9C15.6 12.9 15.3 12.8 15.1 12.6C15.5 13 15.6 13.6 15.2 14C15 14.2 14.7 14.3 14.4 14.3C14.2 14.3 13.9 14.2 13.7 14C13.7 14 13.7 14.6 13.3 15C13.1 15.2 12.8 15.3 12.5 15.3C12.3 15.3 12 15.2 11.8 15L10.9 14.2L11 14.1C11.1 13.9 11.2 13.7 11.2 13.5C11.2 13.3 11.1 13 10.9 12.8L10.7 12.6C10.5 12.4 10.2 12.3 10 12.4C9.9 12.4 9.70001 12.5 9.60001 12.7L9.80001 12.4C9.80001 12.4 9.8 12.3 9.9 12.3C10.1 11.9 10 11.4 9.7 11.1L9.60001 11C9.30001 10.7 8.8 10.7 8.5 11C8.5 11 8.5 11 8.4 11.1C8.4 11.1 8.4 11.1 8.5 11C8.7 10.6 8.70001 10.1 8.30001 9.7L8.2 9.6C7.9 9.3 7.40001 9.3 7.10001 9.6C7.10001 9.6 7 9.6 7 9.7L6.5 10.4C6.4 10.3 6.3 10.3 6.2 10.2L6.5 9.9C6.6 9.7 6.7 9.5 6.7 9.3C6.7 9.1 6.6 8.9 6.4 8.7L6.2 8.5C6.1 8.4 6 8.4 5.9 8.3C5.6 8.2 5.30001 8.3 5.10001 8.6L4.9 8.9L4.7 9.2C4.3 8.9 4.00001 8.7 3.80001 8.6L6.30001 3.2C6.30001 3.2 7 3.3 8 3.7C8 3.8 7.9 4 7.9 4.1C7.9 4.7 8.40001 5.3 9.10001 5.3H12.2C13.2 5.8 14.2 6.3 14.9 7C15 7.1 15.1 7.2 15.2 7.3L17 8.9C17.1 9 17.1 9 17.1 9L17.7 9.5C18.3 10.2 18.3 10.8 18 11.2Z" stroke="black" stroke-width="0.75" stroke-miterlimit="10" stroke-linecap="round" stroke-linejoin="round"/>
<path d="M18.6 8.1L17.3 9.2C17.3 9.2 17.3 9.2 17.2 9.1C16.6 8.5 13.4 5.5 12.3 5.5H9.2C8.6 5.5 8 5 8 4.3C8 4.2 8.00001 4 8.10001 3.9C8.30001 3.5 8.7 3.2 9.2 3.2H12.1C12.2 3.2 12.3 3.2 12.5 3.3L14.3 4L16.5 3.4L18.6 8.1Z" stroke="black" stroke-width="0.75" stroke-miterlimit="10" stroke-linecap="round" stroke-linejoin="round"/>
<path d="M16.5 11.3L15.1 10.1" stroke="black" stroke-width="0.75" stroke-miterlimit="10" stroke-linecap="round" stroke-linejoin="round"/>
<path d="M15.1 12.8L13.7 11.6" stroke="black" stroke-width="0.75" stroke-miterlimit="10" stroke-linecap="round" stroke-linejoin="round"/>
<path d="M13.9 14.3L12.4 13" stroke="black" stroke-width="0.75" stroke-miterlimit="10" stroke-linecap="round" stroke-linejoin="round"/>
<path d="M11.5 13.9C11.5 14.1 11.4 14.3 11.3 14.5L11.2 14.6L10.9 15L10.7 15.2C10.4 15.6 9.90001 15.6 9.60001 15.3L9.4 15.1C9.1 14.8 9 14.4 9.2 14L9.30001 13.9L9.4 13.7L9.7 13.4L9.9 13.2C10 13.1 10.1 13 10.3 12.9C10.5 12.8 10.8 12.9 11 13.1L11.2 13.3C11.4 13.4 11.5 13.7 11.5 13.9Z" stroke="black" stroke-width="0.75" stroke-miterlimit="10" stroke-linecap="round" stroke-linejoin="round"/>
<path d="M10.1 12.8C10.1 12.8 10.1 12.9 10 12.9L9.8 13.2L9.60001 13.4L9.3 13.7L9.2 13.9L9.10001 14L8.7 14.5C8.4 14.9 7.9 14.9 7.5 14.6L7.39999 14.5C6.99999 14.2 7 13.6 7.3 13.2L7.89999 12.4L8.10001 12.1L8.5 11.5C8.5 11.5 8.50001 11.5 8.60001 11.4C8.90001 11.1 9.4 11 9.7 11.4L9.8 11.5C10.3 11.9 10.4 12.4 10.1 12.8Z" stroke="black" stroke-width="0.75" stroke-miterlimit="10" stroke-linecap="round" stroke-linejoin="round"/>
<path d="M8.7 11.5L8.2 12.2L8 12.5L7.4 13.3C7.1 13.7 6.6 13.7 6.2 13.4L6.10001 13.3C5.80001 13 5.7 12.4 6 12L6.60001 11.2L6.7 11.1L7.2 10.4L7.30001 10.3C7.60001 10 8.1 10 8.4 10.3L8.5 10.4C8.9 10.5 9 11.1 8.7 11.5Z" stroke="black" stroke-width="0.75" stroke-miterlimit="10" stroke-linecap="round" stroke-linejoin="round"/>
</svg>
